<svg xmlns="http://www.w3.org/2000/svg" viewBox="0 0 274.1 43.5"><path style="fill:#044F73" d="M41.7 27.7c0 5.7-4.3 8.6-12.9 8.6H13.4c-2.9 0-5.9-.6-8.5-1.9C1.6 32.9 0 30.7 0 28v-3.6c0-3 1.6-5.2 4.7-6.7 2.7-1.2 5.6-1.8 8.6-1.7h22.3c-.3-2-3.2-3-8.6-3h-3.7c-1.1.1-2.2-.7-2.3-1.8v-1.1c-.2-1.1.6-2.2 1.7-2.4h.6c5.3 0 9.1.3 11.5 1 4.6 1.3 6.9 3.9 6.9 7.8v11.2zm-6.3-6.5H13.1c-1.4 0-2.7.3-4 .7-1.8.6-2.7 1.4-2.7 2.4V28c0 1 .9 1.8 2.8 2.4 1.3.4 2.7.7 4.1.7h15.6c2.8 0 4.6-.4 5.5-1.1.8-.6 1.1-1.9 1.1-3.7 0-.4 0-1.2-.1-2.3.1-1.1 0-2 0-2.8M86 27.5c0 3-1.9 5.4-5.8 7-3 1.2-6.3 1.9-9.6 1.8H61c-9.8 0-14.9-2.7-15.1-8.1-.1-3-.1-6.8.1-11.4.2-5.9 5.2-8.8 14.9-8.8h18.8V2.4c-.2-1.1.6-2.2 1.7-2.4h.5c.9 0 1.8 0 2.7.2.9.3 1.5 1.2 1.3 2.2v25.1zm-6.3-.1V13.2H60.8c-5.6 0-8.4 1.2-8.4 3.7v10.2c0 1.9 1.1 3 3.2 3.6 1.8.3 3.6.4 5.4.4h9c6.5-.1 9.7-1.3 9.7-3.7m49.2 0c0 3.2-1.6 5.6-4.8 7.2-2.9 1.2-6 1.8-9.1 1.7h-10.5c-3.2.1-6.4-.5-9.3-1.8-3.5-1.6-5.2-3.9-5.2-7.1V16.9c0-3.2 1.7-5.6 5.2-7.3 2.9-1.3 6.1-2 9.3-1.9H115c9.3 0 14 3 14 9.1l-.1 10.6zm-6.4 0v-11c0-2.3-2.6-3.4-7.8-3.4h-10.2c-1.7 0-3.5.2-5.1.7-2.1.7-3.2 1.7-3.2 3.2v10.5c0 1.4 1.1 2.4 3.3 3 1.7.4 3.4.7 5.1.6h10.2c1.6 0 3.2-.2 4.7-.7 2-.6 3-1.6 3-2.9m28.9-16.7c.2 1.1-.6 2.2-1.8 2.3h-3.3c-4.8 0-7.2 1.2-7.2 3.6V34c.1.9-.4 1.8-1.3 2.2-.9.2-1.8.2-2.8.2-1.1.1-2.2-.7-2.3-1.8V34l.1-17.4c0-5.9 5.4-8.9 16.2-8.9 1.7 0 2.4 1 2.4 3M191 28.1c0 5.5-4.2 8.2-12.5 8.2h-21.3c-1.1.1-2.2-.7-2.3-1.8V34c0-1.9.8-2.9 2.3-2.9h21.3c3.9 0 5.9-1 5.9-2.9v-1.1c0-1.7-1.8-2.6-5.4-2.6h-10.2c-9.4 0-14.1-2.6-14.1-7.9V15c0-3.5 2.4-5.7 7.2-6.7 3.6-.5 7.3-.7 11-.6 1.1-.2 2.2.6 2.4 1.8v1.2c.2 1.1-.6 2.2-1.7 2.3h-5.1c-2.3 0-3.7 0-4.2.1-2.1.2-3.2.9-3.2 1.9v1.5c0 1.2 1.1 2 3.2 2.4 1.5.2 3.1.2 4.6.2h10.4c7.8 0 11.7 2.6 11.7 7.7v1.3zm41.9-20.2c-.9-.2-1.8-.2-2.7-.2-1.1-.2-2.2.6-2.4 1.8v21.4H209c-5.3 0-7.9-1.1-7.9-3.3V10.1c.2-1.1-.6-2.2-1.7-2.4h-.6c-.9 0-1.8 0-2.7.2-.9.3-1.4 1.2-1.2 2.2v17.5c0 5.7 4.7 8.5 14.2 8.5h18.8v5.1c-.2 1.1.6 2.2 1.7 2.4h.6c.9 0 1.9 0 2.8-.2.9-.3 1.4-1.2 1.3-2.2V10.1c.1-1-.4-1.9-1.4-2.2m41.2 20.2c0 5.5-4.2 8.2-12.5 8.2h-21.3c-1.1.2-2.2-.6-2.4-1.7V34c0-2 .8-3 2.4-3h21.3c3.9 0 5.9-1 5.9-2.9v-1c0-1.7-1.8-2.6-5.4-2.6H252c-9.4 0-14.1-2.6-14.1-7.9V15c0-3.5 2.4-5.7 7.2-6.7 3.6-.5 7.3-.7 11-.6 1.1-.2 2.2.6 2.4 1.8v1.2c.2 1.1-.6 2.2-1.8 2.3h-5.1c-2.3 0-3.7 0-4.2.1-2.1.2-3.2.9-3.2 1.9v1.5c0 1.2 1.1 2 3.2 2.4 1.5.2 3.1.2 4.6.2h10.4c7.8 0 11.7 2.6 11.7 7.7v1.3z"></path></svg>