<svg xmlns="http://www.w3.org/2000/svg" data-name="Ebene 1" viewBox="0 0 157.4 28.21"><path d="M0 .56h22.57v4.51H0zm139.35 0h-4.51v27.08h4.51v-8.46h18.05v-4.51h-18.05V5.08h18.05V.56h-18.05zM0 23.13h22.57v4.51H0zM38.36-.02a14.11 14.11 0 1 0 14.11 14.13A14.1 14.1 0 0 0 38.36-.02m0 23.7A9.6 9.6 0 1 1 48 14.11a9.6 9.6 0 0 1-9.59 9.59M116.78-.02a14.11 14.11 0 1 0 14.11 14.11A14.1 14.1 0 0 0 116.78-.02m0 23.7a9.6 9.6 0 1 1 9.59-9.59 9.6 9.6 0 0 1-9.59 9.59M55.85.68h4.51v26.97h-4.51zm10.72 0h4.51v26.97h-4.51zM76.73.56v27.08h4.51v-8.46h18.05v-4.51H81.24V.56h-4.51z"></path></svg>